<?xml version="1.0" encoding="UTF-8" standalone="no"?>
<!-- Created with Inkscape (http://www.inkscape.org/) -->

<svg
   xmlns:dc="http://purl.org/dc/elements/1.1/"
   xmlns:cc="http://creativecommons.org/ns#"
   xmlns:rdf="http://www.w3.org/1999/02/22-rdf-syntax-ns#"
   xmlns:svg="http://www.w3.org/2000/svg"
   xmlns="http://www.w3.org/2000/svg"
   xmlns:sodipodi="http://sodipodi.sourceforge.net/DTD/sodipodi-0.dtd"
   xmlns:inkscape="http://www.inkscape.org/namespaces/inkscape"
   width="512"
   height="512"
   viewBox="0 0 135.46666 135.46666"
   version="1.1"
   id="svg8"
   inkscape:export-filename="/home/leandro/Dev/easytrelloreport/chrome-extension/images/get_started512.png"
   inkscape:export-xdpi="96"
   inkscape:export-ydpi="96"
   sodipodi:docname="icon.svg"
   inkscape:version="0.92.3 (2405546, 2018-03-11)">
  <defs
     id="defs2" />
  <sodipodi:namedview
     id="base"
     pagecolor="#ffffff"
     bordercolor="#666666"
     borderopacity="1.0"
     inkscape:pageopacity="0.0"
     inkscape:pageshadow="2"
     inkscape:zoom="0.7"
     inkscape:cx="151.82261"
     inkscape:cy="332.7366"
     inkscape:document-units="mm"
     inkscape:current-layer="layer1"
     showgrid="false"
     units="px"
     inkscape:snap-text-baseline="true"
     inkscape:window-width="1853"
     inkscape:window-height="1025"
     inkscape:window-x="67"
     inkscape:window-y="27"
     inkscape:window-maximized="1" />
  <metadata
     id="metadata5">
    <rdf:RDF>
      <cc:Work
         rdf:about="">
        <dc:format>image/svg+xml</dc:format>
        <dc:type
           rdf:resource="http://purl.org/dc/dcmitype/StillImage" />
        <dc:title></dc:title>
      </cc:Work>
    </rdf:RDF>
  </metadata>
  <g
     inkscape:label="Layer 1"
     inkscape:groupmode="layer"
     id="layer1"
     transform="translate(0,-161.53334)">
    <rect
       style="fill:#0000bb;fill-opacity:1;stroke:none;stroke-width:2.02017307;stroke-miterlimit:4;stroke-dasharray:none;stroke-opacity:1"
       id="rect889"
       width="135.09625"
       height="136.1546"
       x="0.26080406"
       y="162.02094" />
    <path
       style="fill:#ffffff;fill-opacity:1;stroke-width:0.36465433"
       d="m 79.598902,295.93387 c 5.2512,-1.43936 10.15498,-4.82855 13.04534,-9.01612 0.79225,-1.1478 1.44044,-2.1941 1.44044,-2.32512 0,-0.13101 -0.8339,-0.60507 -1.85311,-1.05346 -2.35133,-1.03446 -4.64024,-3.22286 -5.7424,-5.49028 -0.66364,-1.36526 -0.86023,-2.40995 -0.86458,-4.59437 l -0.006,-2.82729 -2.0723,0.11543 c -4.14265,0.23074 -8.75166,-2.35833 -10.82319,-6.07985 -0.85945,-1.54399 -1.00921,-2.25306 -1.0169,-4.81465 l -0.009,-3.00402 -2.63377,-0.0127 c -6.34036,-0.0308 -11.4747,-4.85925 -11.47545,-10.79166 -8e-4,-4.45314 0.40907,-5.07125 8.03267,-12.12028 3.75598,-3.47293 15.33819,-13.8814 25.73824,-23.12997 14.115518,-12.55265 19.110148,-17.20551 19.701918,-18.35373 1.1221,-2.17724 0.88832,-5.44848 -0.53363,-7.46672 -1.59869,-2.26915 -3.6574,-3.36042 -6.61868,-3.50839 -2.05611,-0.10276 -2.76355,0.0183 -4.081398,0.69804 -0.8768,0.4523 -10.26294,8.53557 -20.8581,17.96285 -10.59515,9.42727 -19.95197,17.63405 -20.79293,18.23727 -5.77133,4.13977 -10.64042,4.20632 -14.85611,0.20303 -1.42421,-1.35247 -3.44402,-4.10824 -6.19574,-8.4533 -2.31201,-3.65073 -4.6909,-6.96282 -5.48509,-7.63676 -2.03957,-1.73076 -4.37045,-2.46628 -7.23952,-2.28448 -2.85009,0.18062 -4.86648,1.0341 -6.75001,2.85713 -2.00039,1.93612 -2.69424,3.87822 -2.52307,7.06206 l 0.14014,2.6067 9.63046,15.01162 9.63045,15.01159 -3.17008,6.17038 c -3.70137,7.2045 -4.8369,10.18986 -5.16995,13.59203 -0.68692,7.01709 3.09088,14.87121 9.16867,19.06188 2.43108,1.67624 29.47995,13.80391 32.34008,14.50006 3.02042,0.73515 8.98959,0.67156 11.90224,-0.1268 z m 20.606108,-15.03356 c 1.62255,-0.5438 1.67162,-0.58448 14.69985,-12.18777 5.99096,-5.3357 10.02665,-9.2057 10.5181,-10.08624 1.16004,-2.07838 1.1107,-5.17871 -0.11526,-7.24435 -1.40839,-2.37301 -3.60742,-3.6616 -6.54891,-3.83753 -1.32207,-0.0791 -3.02451,0.0497 -3.78912,0.28681 -1.93807,0.60079 -23.710938,19.87709 -24.992428,22.12671 -0.6577,1.15456 -0.90841,2.15244 -0.90615,3.60663 0.009,5.48182 5.62477,9.18215 11.133918,7.33574 z M 85.312112,267.30083 c 0.65899,-0.15712 1.70094,-0.58622 2.31545,-0.95353 2.28423,-1.36536 26.217048,-22.85417 27.262808,-24.47872 0.93431,-1.45144 1.03934,-1.91584 0.93635,-4.14058 -0.14269,-3.08254 -1.27989,-4.92164 -3.95562,-6.39708 -2.18705,-1.20598 -5.47585,-1.34786 -7.69585,-0.33203 -0.76184,0.34862 -7.296318,5.86752 -14.521048,12.26423 -14.29696,12.65842 -14.58994,12.99226 -14.54688,16.57585 0.0599,4.98466 5.10926,8.6768 10.20479,7.46186 z m -12.22396,-14.53517 c 0.76482,-0.37941 7.23288,-5.8867 14.37346,-12.23841 11.05916,-9.8374 13.103678,-11.81234 13.798118,-13.32861 2.37948,-5.19546 -2.012778,-11.14635 -7.927558,-10.74074 -1.13817,0.078 -2.662,0.41203 -3.38628,0.74219 -1.50919,0.68795 -26.44215,22.78312 -27.71613,24.56157 -2.48295,3.46614 -0.98732,8.72424 3.10726,10.92408 1.94388,1.04437 5.72831,1.08339 7.75113,0.0799 z m -29.89145,-60.43038 c 0.46582,-0.17588 1.12632,-0.87005 1.46777,-1.54262 1.06604,-2.09979 0.39495,-2.91426 -6.01179,-7.29631 -4.73309,-3.23733 -5.8859,-3.87278 -7.02572,-3.87278 -2.38362,0 -3.94921,2.14778 -3.03196,4.15945 0.45597,1.00003 0.77285,1.24321 7.86283,6.03373 4.19623,2.83531 5.05232,3.15525 6.73887,2.51853 z m 31.41812,-6.43865 c 0.33849,-0.24296 2.40262,-2.7422 4.58696,-5.55387 3.4061,-4.38426 3.97153,-5.30481 3.97153,-6.46583 0,-2.57105 -3.20341,-4.09723 -5.18489,-2.4702 -0.91094,0.74799 -7.8845,9.74553 -8.43856,10.88773 -0.5063,1.04373 -0.1317,2.41899 0.90632,3.32734 0.93355,0.81693 3.19521,0.9664 4.15864,0.27483 z m -22.15695,-1.35094 c 1.6396,-1.21142 1.36603,-2.72646 -1.63232,-9.03985 -1.44304,-3.03849 -2.89977,-5.81105 -3.23718,-6.16126 -0.90231,-0.93652 -2.55089,-1.16593 -3.84867,-0.53557 -2.33112,1.1323 -2.14983,2.74412 1.07916,9.59468 1.46148,3.10064 3.00406,5.91585 3.42797,6.256 1.03901,0.83374 3.00017,0.78065 4.21104,-0.114 z m 10.77398,-1.84532 c 0.51735,-0.24579 1.13436,-0.83982 1.37113,-1.32008 0.23677,-0.48026 0.73948,-3.87254 1.11715,-7.53841 l 0.68665,-6.66522 -1.21715,-1.0215 c -0.66943,-0.56182 -1.56151,-1.02149 -1.9824,-1.02149 -1.09555,0 -2.84907,0.92533 -3.15638,1.66563 -0.28675,0.69075 -1.69654,11.68217 -1.70503,13.29322 -0.006,1.23607 1.83069,3.06733 3.06989,3.05997 0.48152,-0.003 1.29879,-0.20632 1.81614,-0.45212 z"
       id="path868"
       inkscape:connector-curvature="0" />
    <text
       xml:space="preserve"
       style="font-style:normal;font-variant:normal;font-weight:bold;font-stretch:normal;font-size:36.14186478px;line-height:1.25;font-family:sans-serif;-inkscape-font-specification:'sans-serif, Bold';font-variant-ligatures:normal;font-variant-caps:normal;font-variant-numeric:normal;font-feature-settings:normal;text-align:start;letter-spacing:0px;word-spacing:0px;writing-mode:lr-tb;text-anchor:start;fill:#0000bb;fill-opacity:1;stroke:none;stroke-width:1.28915441;stroke-miterlimit:4;stroke-dasharray:none;stroke-opacity:1"
       x="38.154552"
       y="281.21927"
       id="text828"
       transform="scale(0.9471958,1.0557479)"><tspan
         sodipodi:role="line"
         id="tspan826"
         x="38.154552"
         y="281.21927"
         style="font-style:normal;font-variant:normal;font-weight:bold;font-stretch:normal;font-size:36.14186478px;font-family:sans-serif;-inkscape-font-specification:'sans-serif, Bold';font-variant-ligatures:normal;font-variant-caps:normal;font-variant-numeric:normal;font-feature-settings:normal;text-align:start;writing-mode:lr-tb;text-anchor:start;fill:#0000bb;fill-opacity:1;stroke:none;stroke-width:1.28915441;stroke-miterlimit:4;stroke-dasharray:none;stroke-opacity:1">TR</tspan></text>
  </g>
</svg>
